<?xml version="1.0" encoding="utf-8"?>
<!-- Generator: Adobe Illustrator 26.5.0, SVG Export Plug-In . SVG Version: 6.00 Build 0)  -->
<svg version="1.1" id="Calque_1" xmlns="http://www.w3.org/2000/svg" xmlns:xlink="http://www.w3.org/1999/xlink" x="0px" y="0px"
	 viewBox="0 0 1482.47 151.27" style="enable-background:new 0 0 1482.47 151.27;" xml:space="preserve">
<style type="text/css">
	.st0{fill:#FFFFFF;}
</style>
<g>
	<path class="st0" d="M1457.71,87.98h-700.2V63.29h700.2c6.82,0,12.35,5.53,12.35,12.35v0
		C1470.06,82.45,1464.53,87.98,1457.71,87.98z"/>
	<circle class="st0" cx="736.33" cy="75.64" r="61.68"/>
	<path class="st0" d="M145.43,115.76c-16.86,0-35.45-4.38-53.9-17.08c-27.41-18.87-52.89-10.44-64.75-4.44
		c-4.26,2.16-9.42,0.95-12.32-2.85l0,0c-3.78-4.94-2.15-12.09,3.4-14.9c19.25-9.77,52.28-16.52,84.88,5.92
		c36.06,24.83,72.77,10.4,91.45-0.41c22.06-12.77,66.71-29.63,117.78,1.05c38.75,23.28,56.46,9.1,68.18-0.29
		c1.99-1.6,3.75-2.99,5.3-4.01c14.39-9.6,65.1-38.28,113.19-4.15c38.73,27.49,67.28,8.81,86.17-3.55
		c34.6-22.63,68.93-24.56,98.07-5.99c4.9,3.12,5.83,9.94,2.17,14.46l0,0c-3.2,3.94-8.81,4.71-13.09,1.99
		c-22.61-14.31-48.12-12.37-75.94,5.82c-19.45,12.72-59.11,38.66-108.81,3.38c-36.77-26.09-75.75-5.57-90.8,4.48
		c-1.15,0.76-2.43,1.81-3.91,2.99c-13.04,10.44-40.16,32.17-90.7,1.81c-42.39-25.47-79.41-11.48-97.71-0.89
		C193.02,105.49,171.24,115.76,145.43,115.76z"/>
</g>
</svg>
