<?xml version="1.0" encoding="utf-8"?>
<!-- Generator: Adobe Illustrator 26.5.0, SVG Export Plug-In . SVG Version: 6.00 Build 0)  -->
<svg version="1.1" id="Calque_1" xmlns="http://www.w3.org/2000/svg" xmlns:xlink="http://www.w3.org/1999/xlink" x="0px" y="0px"
	 viewBox="0 0 1178.76 1080" style="enable-background:new 0 0 1178.76 1080;" xml:space="preserve">
<style type="text/css">
	.st0{fill:url(#SVGID_1_);}
	.st1{fill:url(#SVGID_00000000917167143729444830000007340666854082355082_);}
	.st2{fill:url(#SVGID_00000008150725207542651940000007243327822318405020_);}
	.st3{fill:url(#SVGID_00000026165646436194938180000002390776371468651666_);}
	.st4{fill:url(#SVGID_00000003084065886076071960000012959063300087374990_);}
	.st5{fill:url(#SVGID_00000080907853018324452090000004309819170333164215_);}
	.st6{fill:url(#SVGID_00000016776035998884104610000003932532052079299758_);}
	.st7{fill:url(#SVGID_00000018212827816412462660000003581758755095532216_);}
</style>
<g>
	
		<linearGradient id="SVGID_1_" gradientUnits="userSpaceOnUse" x1="-533.7466" y1="1461.7759" x2="3198.3066" y2="-647.6456" gradientTransform="matrix(1 0 0 -1 0 1080)">
		<stop  offset="0" style="stop-color:#29ABE2"/>
		<stop  offset="1" style="stop-color:#FF00FF"/>
	</linearGradient>
	<path class="st0" d="M629.13,474.83V155.37h98.29c28.07,0,53.21,6.32,75.36,18.96c22.16,12.64,39.45,30.65,51.87,53.98
		c12.43,23.33,18.65,49.83,18.65,79.55v14.69c0,29.69-6.1,56.09-18.31,79.2c-12.21,23.12-29.44,41.03-51.66,53.76
		c-22.25,12.74-47.32,19.15-75.24,19.31L629.13,474.83L629.13,474.83z M694.95,208.67v213.26h31.82c25.75,0,45.43-8.4,59.03-25.22
		c13.6-16.83,20.54-40.87,20.85-72.17v-16.89c0-32.48-6.72-57.08-20.17-73.81s-33.13-25.13-59.03-25.13h-32.51V208.67z"/>
	
		<linearGradient id="SVGID_00000085972495795972573290000008005757703900233897_" gradientUnits="userSpaceOnUse" x1="-1056.1899" y1="1615.5167" x2="2675.8635" y2="-493.9048" gradientTransform="matrix(1 0 0 -1 0 1080)">
		<stop  offset="0" style="stop-color:#29ABE2"/>
		<stop  offset="1" style="stop-color:#FF00FF"/>
	</linearGradient>
	<path style="fill:url(#SVGID_00000085972495795972573290000008005757703900233897_);" d="M575.19,368.4
		c-2.48,34.37-15.18,61.42-38.05,81.19c-22.9,19.74-53.05,29.62-90.52,29.62c-40.97,0-73.16-13.79-96.65-41.37
		c-23.49-27.58-35.2-65.42-35.2-113.54v-19.52c0-30.71,5.42-57.76,16.24-81.19c10.81-23.4,26.28-41.37,46.39-53.86
		c20.11-12.52,43.48-18.75,70.09-18.75c36.84,0,66.56,9.89,89.09,29.62c22.53,19.74,35.54,47.47,39.04,83.14H509.8
		c-1.61-20.64-7.34-35.57-17.23-44.87c-9.89-9.3-24.91-13.94-45.09-13.94c-21.94,0-38.36,7.87-49.27,23.58s-16.49,40.13-16.8,73.16
		v24.14c0,34.52,5.24,59.74,15.68,75.7c10.44,15.96,26.96,23.92,49.49,23.92c20.33,0,35.51-4.65,45.52-13.94
		c10.01-9.3,15.77-23.64,17.23-43.1L575.19,368.4L575.19,368.4z"/>
	<g>
		
			<linearGradient id="SVGID_00000102541137830976947430000009854611609820409773_" gradientUnits="userSpaceOnUse" x1="-574.507" y1="787.7927" x2="1324.4421" y2="-285.5264" gradientTransform="matrix(1 0 0 -1 0 1080)">
			<stop  offset="0" style="stop-color:#29ABE2"/>
			<stop  offset="1" style="stop-color:#FF00FF"/>
		</linearGradient>
		<path style="fill:url(#SVGID_00000102541137830976947430000009854611609820409773_);" d="M508.2,659.47H29.77v151.99
			c0,70.19,56.9,127.09,127.09,127.09H556.4V707.67C556.4,681.05,534.82,659.47,508.2,659.47z"/>
	</g>
	<g>
		
			<linearGradient id="SVGID_00000043430998156621753830000014152436697256838325_" gradientUnits="userSpaceOnUse" x1="-359.3809" y1="977.7366" x2="1393.5087" y2="-13.0271" gradientTransform="matrix(1 0 0 -1 0 1080)">
			<stop  offset="0" style="stop-color:#29ABE2"/>
			<stop  offset="1" style="stop-color:#FF00FF"/>
		</linearGradient>
		<path style="fill:url(#SVGID_00000043430998156621753830000014152436697256838325_);" d="M1147.67,659.47h-500.5
			c-26.62,0-48.2,21.58-48.2,48.2v230.88h421.89c70.04,0,126.81-56.77,126.81-126.81V659.47z"/>
	</g>
	<g>
		
			<linearGradient id="SVGID_00000010271460382479470670000007368776476505041033_" gradientUnits="userSpaceOnUse" x1="-397.4112" y1="1101.1162" x2="1501.538" y2="27.7972" gradientTransform="matrix(1 0 0 -1 0 1080)">
			<stop  offset="0" style="stop-color:#29ABE2"/>
			<stop  offset="1" style="stop-color:#FF00FF"/>
		</linearGradient>
		<path style="fill:url(#SVGID_00000010271460382479470670000007368776476505041033_);" d="M29.77,166.9v150.44H211.5
			c10.77,0,16.18-13.01,8.58-20.64L73.15,149C57.17,132.92,29.77,144.24,29.77,166.9z"/>
	</g>
	<g>
		
			<linearGradient id="SVGID_00000109023725232419040490000000990996477294730175_" gradientUnits="userSpaceOnUse" x1="-155.092" y1="1529.8346" x2="1743.8569" y2="456.5156" gradientTransform="matrix(1 0 0 -1 0 1080)">
			<stop  offset="0" style="stop-color:#29ABE2"/>
			<stop  offset="1" style="stop-color:#FF00FF"/>
		</linearGradient>
		<path style="fill:url(#SVGID_00000109023725232419040490000000990996477294730175_);" d="M1148.99,167.17V317.6H967.26
			c-10.77,0-16.18-13.01-8.58-20.64l146.93-147.69C1121.57,133.2,1148.99,144.52,1148.99,167.17z"/>
	</g>
	<g>
		
			<linearGradient id="SVGID_00000033340537369983511220000005995866827571271615_" gradientUnits="userSpaceOnUse" x1="-483.3647" y1="949.0446" x2="1415.5845" y2="-124.2745" gradientTransform="matrix(1 0 0 -1 0 1080)">
			<stop  offset="0" style="stop-color:#29ABE2"/>
			<stop  offset="1" style="stop-color:#FF00FF"/>
		</linearGradient>
		<path style="fill:url(#SVGID_00000033340537369983511220000005995866827571271615_);" d="M242.98,359.89H29.77v257.01h453.34
			c20.54,0,30.86-24.8,16.37-39.37L311.17,388.25C293.12,370.09,268.58,359.89,242.98,359.89z"/>
	</g>
	<g>
		
			<linearGradient id="SVGID_00000039822766709666674970000017202094854300928405_" gradientUnits="userSpaceOnUse" x1="-297.0081" y1="1278.7526" x2="1601.9413" y2="205.4335" gradientTransform="matrix(1 0 0 -1 0 1080)">
			<stop  offset="0" style="stop-color:#29ABE2"/>
			<stop  offset="1" style="stop-color:#FF00FF"/>
		</linearGradient>
		<path style="fill:url(#SVGID_00000039822766709666674970000017202094854300928405_);" d="M935.79,360.17h213.2v257.01H695.65
			c-20.54,0-30.86-24.8-16.37-39.37l188.29-189.29C885.63,370.37,910.18,360.17,935.79,360.17z"/>
	</g>
</g>
</svg>
