<?xml version="1.0" encoding="utf-8"?>
<!-- Generator: Adobe Illustrator 26.5.0, SVG Export Plug-In . SVG Version: 6.00 Build 0)  -->
<svg version="1.1" id="Calque_1" xmlns="http://www.w3.org/2000/svg" xmlns:xlink="http://www.w3.org/1999/xlink" x="0px" y="0px"
	 viewBox="0 0 1920 1080" style="enable-background:new 0 0 1920 1080;" xml:space="preserve">
<style type="text/css">
	.st0{fill:url(#SVGID_1_);}
	.st1{fill:url(#SVGID_00000127002828352580345770000003273186919935932047_);}
	.st2{fill:url(#SVGID_00000127030777395143677530000000911809979237609140_);}
	.st3{fill:url(#SVGID_00000088123125144925142610000009081518540244459185_);}
	.st4{fill:url(#SVGID_00000150815288799958409650000014422320380800705943_);}
	.st5{fill:url(#SVGID_00000034047216771347288470000012378403186087283851_);}
	.st6{fill:url(#SVGID_00000014625830666034010780000008137811200862301078_);}
	.st7{fill:url(#SVGID_00000176022709446658583460000017586448054076198074_);}
	.st8{fill:url(#SVGID_00000038374293190352330220000015426250324473052058_);}
	.st9{fill:url(#SVGID_00000080918704214401186150000006640005667803438505_);}
	.st10{fill:url(#SVGID_00000165952518605421912980000012910018633470946970_);}
	.st11{fill:url(#SVGID_00000048473706586973499820000002611829894546743940_);}
	.st12{fill:url(#SVGID_00000016035297098533755610000014998578224941814949_);}
	.st13{fill:url(#SVGID_00000026145249356729163430000009354718319115275425_);}
	.st14{fill:url(#SVGID_00000100360561470356026920000007852028588774441119_);}
	.st15{fill:url(#SVGID_00000145053917258796437880000011282310990217874595_);}
	.st16{fill:url(#SVGID_00000170960942161603312800000000527613749434428090_);}
	.st17{fill:url(#SVGID_00000158713041907503188070000016625290034867096968_);}
	.st18{fill:url(#SVGID_00000141448063616922831970000010900266751028188295_);}
	.st19{fill:url(#SVGID_00000135655986205800070900000008572627566717323172_);}
	.st20{fill:url(#SVGID_00000148659470208297026540000012156382740934704519_);}
	.st21{fill:url(#SVGID_00000142169795699559429080000002582283532571189650_);}
	.st22{fill:url(#SVGID_00000004533084223024436800000008006280352999421073_);}
	.st23{fill:url(#SVGID_00000180361423765322891160000003126005455008256957_);}
	.st24{fill:url(#SVGID_00000108285654541274960780000012685120358722423685_);}
</style>
<linearGradient id="SVGID_1_" gradientUnits="userSpaceOnUse" x1="390.2781" y1="95.3988" x2="1594.6417" y2="776.1261">
	<stop  offset="0" style="stop-color:#29ABE2"/>
	<stop  offset="1" style="stop-color:#FF00FF"/>
</linearGradient>
<path class="st0" d="M765.55,371.83V268.74h31.72c9.06,0,17.17,2.04,24.32,6.12c7.15,4.08,12.73,9.89,16.74,17.42
	c4.01,7.53,6.02,16.08,6.02,25.67v4.74c0,9.58-1.97,18.1-5.91,25.56c-3.94,7.46-9.5,13.24-16.67,17.35
	c-7.18,4.11-15.27,6.18-24.28,6.23H765.55z M786.79,285.94v68.82h10.27c8.31,0,14.66-2.71,19.05-8.14
	c4.39-5.43,6.63-13.19,6.73-23.29v-5.45c0-10.48-2.17-18.42-6.51-23.82c-4.34-5.4-10.69-8.11-19.05-8.11H786.79z"/>
<linearGradient id="SVGID_00000029744784934085957400000005350249532362229130_" gradientUnits="userSpaceOnUse" x1="410.519" y1="59.588" x2="1614.8827" y2="740.3152">
	<stop  offset="0" style="stop-color:#29ABE2"/>
	<stop  offset="0.6824" style="stop-color:#BB36F6"/>
	<stop  offset="1" style="stop-color:#FF00FF"/>
</linearGradient>
<path style="fill:url(#SVGID_00000029744784934085957400000005350249532362229130_);" d="M882.37,371.83h-21.24V268.74h21.24V371.83
	z"/>
<linearGradient id="SVGID_00000088829883789025442010000009150252601574966437_" gradientUnits="userSpaceOnUse" x1="426.6633" y1="31.0251" x2="1631.0269" y2="711.7524">
	<stop  offset="0" style="stop-color:#29ABE2"/>
	<stop  offset="1" style="stop-color:#FF00FF"/>
</linearGradient>
<path style="fill:url(#SVGID_00000088829883789025442010000009150252601574966437_);" d="M955.51,344.78c0-4.01-1.42-7.09-4.25-9.24
	c-2.83-2.15-7.93-4.41-15.29-6.8c-7.36-2.38-13.19-4.73-17.49-7.04c-11.71-6.32-17.56-14.84-17.56-25.56
	c0-5.57,1.57-10.54,4.71-14.9c3.14-4.37,7.65-7.78,13.52-10.23c5.88-2.45,12.47-3.68,19.79-3.68c7.36,0,13.92,1.33,19.68,4
	c5.76,2.67,10.23,6.43,13.42,11.29c3.19,4.86,4.78,10.38,4.78,16.57h-21.24c0-4.72-1.49-8.39-4.46-11.01
	c-2.97-2.62-7.15-3.93-12.53-3.93c-5.19,0-9.23,1.1-12.11,3.29c-2.88,2.19-4.32,5.09-4.32,8.67c0,3.35,1.69,6.16,5.06,8.43
	c3.37,2.27,8.34,4.39,14.9,6.37c12.08,3.64,20.89,8.14,26.41,13.52c5.52,5.38,8.28,12.08,8.28,20.11c0,8.92-3.38,15.92-10.12,20.99
	c-6.75,5.07-15.84,7.61-27.26,7.61c-7.93,0-15.15-1.45-21.67-4.35c-6.51-2.9-11.48-6.88-14.9-11.93c-3.42-5.05-5.13-10.9-5.13-17.56
	h21.31c0,11.38,6.8,17.06,20.39,17.06c5.05,0,8.99-1.03,11.82-3.08C954.09,351.33,955.51,348.46,955.51,344.78z"/>
<linearGradient id="SVGID_00000021813853505362890230000006674094774341815192_" gradientUnits="userSpaceOnUse" x1="449.153" y1="-8.7644" x2="1653.5166" y2="671.9629">
	<stop  offset="0" style="stop-color:#29ABE2"/>
	<stop  offset="1" style="stop-color:#FF00FF"/>
</linearGradient>
<path style="fill:url(#SVGID_00000021813853505362890230000006674094774341815192_);" d="M1072.11,337.49
	c-0.8,11.09-4.9,19.82-12.28,26.2c-7.39,6.37-17.12,9.56-29.21,9.56c-13.22,0-23.61-4.45-31.19-13.35
	c-7.58-8.9-11.36-21.11-11.36-36.64v-6.3c0-9.91,1.75-18.64,5.24-26.2c3.49-7.55,8.48-13.35,14.97-17.38
	c6.49-4.04,14.03-6.05,22.62-6.05c11.89,0,21.48,3.19,28.74,9.56s11.47,15.32,12.6,26.83h-21.24c-0.52-6.66-2.37-11.48-5.56-14.48
	c-3.19-3-8.04-4.5-14.55-4.5c-7.08,0-12.38,2.54-15.9,7.61c-3.52,5.07-5.32,12.95-5.42,23.61v7.79c0,11.14,1.69,19.28,5.06,24.43
	c3.37,5.15,8.7,7.72,15.97,7.72c6.56,0,11.46-1.5,14.69-4.5c3.23-3,5.09-7.63,5.56-13.91H1072.11z"/>
<linearGradient id="SVGID_00000109731498493434480510000016486079440405821109_" gradientUnits="userSpaceOnUse" x1="472.2979" y1="-49.713" x2="1676.6615" y2="631.0143">
	<stop  offset="0" style="stop-color:#29ABE2"/>
	<stop  offset="1" style="stop-color:#FF00FF"/>
</linearGradient>
<path style="fill:url(#SVGID_00000109731498493434480510000016486079440405821109_);" d="M1170.74,322.62
	c0,10.15-1.79,19.05-5.38,26.69c-3.59,7.65-8.72,13.55-15.4,17.7c-6.68,4.15-14.34,6.23-22.97,6.23c-8.54,0-16.17-2.05-22.87-6.16
	s-11.89-9.97-15.58-17.59c-3.68-7.62-5.55-16.39-5.59-26.3v-5.1c0-10.15,1.83-19.08,5.49-26.8c3.66-7.72,8.83-13.64,15.5-17.77
	c6.68-4.13,14.31-6.2,22.9-6.2c8.59,0,16.22,2.07,22.9,6.2c6.68,4.13,11.85,10.05,15.5,17.77c3.66,7.72,5.49,16.63,5.49,26.73
	V322.62z M1149.22,317.95c0-10.81-1.94-19.02-5.81-24.64c-3.87-5.62-9.39-8.43-16.57-8.43c-7.13,0-12.63,2.77-16.5,8.32
	c-3.87,5.55-5.83,13.68-5.88,24.39v5.03c0,10.53,1.93,18.69,5.81,24.5c3.87,5.81,9.44,8.71,16.71,8.71c7.13,0,12.6-2.8,16.43-8.39
	c3.82-5.59,5.76-13.75,5.81-24.46V317.95z"/>
<linearGradient id="SVGID_00000099658886339547126640000016561729063450242696_" gradientUnits="userSpaceOnUse" x1="350.4962" y1="-82.2179" x2="1554.8599" y2="598.5094">
	<stop  offset="0" style="stop-color:#29ABE2"/>
	<stop  offset="1" style="stop-color:#FF00FF"/>
</linearGradient>
<path style="fill:url(#SVGID_00000099658886339547126640000016561729063450242696_);" d="M876.95,209.49
	c-0.8,11.09-4.9,19.82-12.28,26.2c-7.39,6.37-17.12,9.56-29.21,9.56c-13.22,0-23.61-4.45-31.19-13.35
	c-7.58-8.9-11.36-21.11-11.36-36.64v-6.3c0-9.91,1.75-18.64,5.24-26.2c3.49-7.55,8.48-13.35,14.97-17.38
	c6.49-4.04,14.03-6.05,22.62-6.05c11.89,0,21.48,3.19,28.75,9.56c7.27,6.37,11.47,15.32,12.6,26.83h-21.24
	c-0.52-6.66-2.37-11.48-5.56-14.48c-3.19-3-8.04-4.5-14.55-4.5c-7.08,0-12.38,2.54-15.9,7.61c-3.52,5.07-5.32,12.95-5.42,23.61v7.79
	c0,11.14,1.69,19.28,5.06,24.43c3.37,5.15,8.7,7.72,15.97,7.72c6.56,0,11.46-1.5,14.69-4.5c3.23-3,5.09-7.63,5.56-13.91H876.95z"/>
<linearGradient id="SVGID_00000181778512197910210880000015047306456768503446_" gradientUnits="userSpaceOnUse" x1="366.3233" y1="-110.2196" x2="1570.687" y2="570.5077">
	<stop  offset="0" style="stop-color:#29ABE2"/>
	<stop  offset="1" style="stop-color:#FF00FF"/>
</linearGradient>
<path style="fill:url(#SVGID_00000181778512197910210880000015047306456768503446_);" d="M912.14,226.76h45.1v17.06H890.9V140.74
	h21.24V226.76z"/>
<linearGradient id="SVGID_00000039132666625425903850000002847836084097736619_" gradientUnits="userSpaceOnUse" x1="394.5352" y1="-160.1328" x2="1598.8988" y2="520.5944">
	<stop  offset="0" style="stop-color:#29ABE2"/>
	<stop  offset="1" style="stop-color:#FF00FF"/>
</linearGradient>
<path style="fill:url(#SVGID_00000039132666625425903850000002847836084097736619_);" d="M1045.74,140.74v67.9
	c0,11.28-3.53,20.2-10.58,26.76c-7.06,6.56-16.7,9.84-28.92,9.84c-12.04,0-21.59-3.19-28.67-9.56s-10.69-15.13-10.83-26.27v-68.68
	h21.24v68.04c0,6.75,1.62,11.67,4.85,14.76c3.23,3.09,7.71,4.64,13.42,4.64c11.94,0,18.01-6.28,18.2-18.83v-68.61H1045.74z"/>
<linearGradient id="SVGID_00000038382568591017592840000018155182511123211653_" gradientUnits="userSpaceOnUse" x1="411.7872" y1="-190.6557" x2="1616.1509" y2="490.0715">
	<stop  offset="0" style="stop-color:#29ABE2"/>
	<stop  offset="1" style="stop-color:#FF00FF"/>
</linearGradient>
<path style="fill:url(#SVGID_00000038382568591017592840000018155182511123211653_);" d="M1063.16,243.83V140.74h36.11
	c12.51,0,22,2.4,28.46,7.19c6.47,4.79,9.7,11.81,9.7,21.06c0,5.05-1.3,9.5-3.89,13.35c-2.6,3.85-6.21,6.67-10.83,8.46
	c5.29,1.32,9.45,3.99,12.5,8c3.04,4.01,4.57,8.92,4.57,14.73c0,9.91-3.16,17.42-9.49,22.51c-6.33,5.1-15.34,7.69-27.05,7.79H1063.16
	z M1084.4,183.93h15.72c10.71-0.19,16.07-4.46,16.07-12.81c0-4.67-1.36-8.04-4.07-10.09c-2.71-2.05-7-3.08-12.85-3.08h-14.87V183.93
	z M1084.4,198.94v27.82h18.2c5,0,8.91-1.19,11.72-3.58c2.81-2.38,4.21-5.67,4.21-9.88c0-9.44-4.88-14.23-14.66-14.37H1084.4z"/>
<g>
	
		<linearGradient id="SVGID_00000143592405012009933510000014887548708089031317_" gradientUnits="userSpaceOnUse" x1="59.7307" y1="560.2136" x2="1264.0944" y2="1240.9408">
		<stop  offset="0" style="stop-color:#29ABE2"/>
		<stop  offset="1" style="stop-color:#FF00FF"/>
	</linearGradient>
	<path style="fill:url(#SVGID_00000143592405012009933510000014887548708089031317_);" d="M585.16,697.82h-313v0
		c0,134.21,108.79,243,243,243h70V697.82z"/>
</g>
<g>
	
		<linearGradient id="SVGID_00000036223255248498388370000013531931515033774256_" gradientUnits="userSpaceOnUse" x1="122.9251" y1="448.408" x2="1327.2888" y2="1129.1353">
		<stop  offset="0" style="stop-color:#29ABE2"/>
		<stop  offset="1" style="stop-color:#FF00FF"/>
	</linearGradient>
	
		<rect x="612.16" y="697.82" style="fill:url(#SVGID_00000036223255248498388370000013531931515033774256_);" width="334" height="243"/>
</g>
<g>
	<g>
		
			<linearGradient id="SVGID_00000043423477023226142530000009167874093779870595_" gradientUnits="userSpaceOnUse" x1="296.8886" y1="140.6264" x2="1501.2522" y2="821.3537">
			<stop  offset="0" style="stop-color:#29ABE2"/>
			<stop  offset="1" style="stop-color:#FF00FF"/>
		</linearGradient>
		<path style="fill:url(#SVGID_00000043423477023226142530000009167874093779870595_);" d="M1348.16,697.82v243h56
			c134.2,0,243-108.79,243-243v0H1348.16z"/>
	</g>
	<g>
		
			<linearGradient id="SVGID_00000127764457224093901460000003103824341274293151_" gradientUnits="userSpaceOnUse" x1="212.0254" y1="290.769" x2="1416.389" y2="971.4963">
			<stop  offset="0" style="stop-color:#29ABE2"/>
			<stop  offset="1" style="stop-color:#FF00FF"/>
		</linearGradient>
		
			<rect x="973.16" y="697.82" style="fill:url(#SVGID_00000127764457224093901460000003103824341274293151_);" width="348" height="243"/>
	</g>
</g>
<g>
	
		<linearGradient id="SVGID_00000163063428974160891270000005820079161573509254_" gradientUnits="userSpaceOnUse" x1="139.5849" y1="418.933" x2="1343.9485" y2="1099.6603">
		<stop  offset="0" style="stop-color:#29ABE2"/>
		<stop  offset="1" style="stop-color:#FF00FF"/>
	</linearGradient>
	
		<rect x="272.16" y="493.82" style="fill:url(#SVGID_00000163063428974160891270000005820079161573509254_);" width="313" height="177"/>
</g>
<g>
	
		<linearGradient id="SVGID_00000164510624549726624110000008318856603389604262_" gradientUnits="userSpaceOnUse" x1="221.7223" y1="273.613" x2="1426.0859" y2="954.3403">
		<stop  offset="0" style="stop-color:#29ABE2"/>
		<stop  offset="1" style="stop-color:#FF00FF"/>
	</linearGradient>
	<path style="fill:url(#SVGID_00000164510624549726624110000008318856603389604262_);" d="M915.59,493.82H612.16v177h334V524.39
		C946.16,507.51,932.47,493.82,915.59,493.82z"/>
</g>
<g>
	<g>
		
			<linearGradient id="SVGID_00000016035176228084804780000002774218503109325972_" gradientUnits="userSpaceOnUse" x1="313.5483" y1="111.1515" x2="1517.912" y2="791.8788">
			<stop  offset="0" style="stop-color:#29ABE2"/>
			<stop  offset="1" style="stop-color:#FF00FF"/>
		</linearGradient>
		<path style="fill:url(#SVGID_00000016035176228084804780000002774218503109325972_);" d="M1321.16,493.82h-317.43
			c-16.88,0-30.57,13.69-30.57,30.57v146.43h348V493.82z"/>
	</g>
	<g>
		
			<linearGradient id="SVGID_00000034086059892946356120000008995998486176630443_" gradientUnits="userSpaceOnUse" x1="398.4115" y1="-38.991" x2="1602.7751" y2="641.7362">
			<stop  offset="0" style="stop-color:#29ABE2"/>
			<stop  offset="1" style="stop-color:#FF00FF"/>
		</linearGradient>
		
			<rect x="1348.16" y="493.82" style="fill:url(#SVGID_00000034086059892946356120000008995998486176630443_);" width="299" height="177"/>
	</g>
</g>
<g>
	
		<linearGradient id="SVGID_00000064335665524183458500000017318617778353564554_" gradientUnits="userSpaceOnUse" x1="223.9731" y1="269.6307" x2="1428.3368" y2="950.358">
		<stop  offset="0" style="stop-color:#29ABE2"/>
		<stop  offset="1" style="stop-color:#FF00FF"/>
	</linearGradient>
	
		<rect x="272.16" y="303.82" style="fill:url(#SVGID_00000064335665524183458500000017318617778353564554_);" width="313" height="163"/>
</g>
<g>
	
		<linearGradient id="SVGID_00000146480724846932941500000005859249445566319765_" gradientUnits="userSpaceOnUse" x1="482.7998" y1="-188.2933" x2="1687.1635" y2="492.4339">
		<stop  offset="0" style="stop-color:#29ABE2"/>
		<stop  offset="1" style="stop-color:#FF00FF"/>
	</linearGradient>
	
		<rect x="1348.16" y="303.82" style="fill:url(#SVGID_00000146480724846932941500000005859249445566319765_);" width="299" height="163"/>
</g>
<g>
	
		<linearGradient id="SVGID_00000150793532896344412620000010092047595478652316_" gradientUnits="userSpaceOnUse" x1="546.5292" y1="-301.0453" x2="1750.8928" y2="379.6819">
		<stop  offset="0" style="stop-color:#29ABE2"/>
		<stop  offset="1" style="stop-color:#FF00FF"/>
	</linearGradient>
	<path style="fill:url(#SVGID_00000150793532896344412620000010092047595478652316_);" d="M1348.16,177.17v99.65h299v0
		c0-76.22-61.78-138-138-138H1386.5C1365.33,138.82,1348.16,155.99,1348.16,177.17z"/>
</g>
<g>
	
		<linearGradient id="SVGID_00000039113985042285234520000017978437621832458670_" gradientUnits="userSpaceOnUse" x1="341.2332" y1="62.1706" x2="1545.5968" y2="742.8979">
		<stop  offset="0" style="stop-color:#29ABE2"/>
		<stop  offset="1" style="stop-color:#FF00FF"/>
	</linearGradient>
	<path style="fill:url(#SVGID_00000039113985042285234520000017978437621832458670_);" d="M612.16,181.42v95.41h115.26
		c6.83,0,10.26-8.25,5.44-13.09l-93.19-93.67C629.54,159.87,612.16,167.05,612.16,181.42z"/>
</g>
<g>
	
		<linearGradient id="SVGID_00000026851083591249942860000009574518992285962156_" gradientUnits="userSpaceOnUse" x1="494.915" y1="-209.7279" x2="1699.2786" y2="470.9994">
		<stop  offset="0" style="stop-color:#29ABE2"/>
		<stop  offset="1" style="stop-color:#FF00FF"/>
	</linearGradient>
	<path style="fill:url(#SVGID_00000026851083591249942860000009574518992285962156_);" d="M1322,181.59V277h-115.26
		c-6.83,0-10.26-8.25-5.44-13.09l93.19-93.67C1304.61,160.05,1322,167.23,1322,181.59z"/>
</g>
<g>
	
		<linearGradient id="SVGID_00000009554235808227186150000003677124643459653299_" gradientUnits="userSpaceOnUse" x1="286.7151" y1="158.6257" x2="1491.0787" y2="839.353">
		<stop  offset="0" style="stop-color:#29ABE2"/>
		<stop  offset="1" style="stop-color:#FF00FF"/>
	</linearGradient>
	<path style="fill:url(#SVGID_00000009554235808227186150000003677124643459653299_);" d="M747.38,303.82H612.16v163h287.52
		c13.03,0,19.57-15.73,10.38-24.97L790.63,321.81C779.18,310.29,763.62,303.82,747.38,303.82z"/>
</g>
<g>
	
		<linearGradient id="SVGID_00000067194478173813645110000002597969513651759295_" gradientUnits="userSpaceOnUse" x1="404.9084" y1="-50.4856" x2="1609.2721" y2="630.2417">
		<stop  offset="0" style="stop-color:#29ABE2"/>
		<stop  offset="1" style="stop-color:#FF00FF"/>
	</linearGradient>
	<path style="fill:url(#SVGID_00000067194478173813645110000002597969513651759295_);" d="M1186.78,304H1322v163h-287.52
		c-13.03,0-19.57-15.73-10.38-24.97l119.42-120.05C1154.97,310.47,1170.54,304,1186.78,304z"/>
</g>
<linearGradient id="SVGID_00000009565890367549100340000010305030722459551154_" gradientUnits="userSpaceOnUse" x1="296.4777" y1="141.3534" x2="1500.8413" y2="822.0807">
	<stop  offset="0" style="stop-color:#29ABE2"/>
	<stop  offset="1" style="stop-color:#FF00FF"/>
</linearGradient>
<path style="fill:url(#SVGID_00000009565890367549100340000010305030722459551154_);" d="M585,277H272v0c0-76.22,61.78-138,138-138
	h136.69c21.16,0,38.31,17.15,38.31,38.31V277z"/>
</svg>
